<?xml version="1.0" encoding="UTF-8"?>
<svg id="Layer_1" data-name="Layer 1" xmlns="http://www.w3.org/2000/svg" viewBox="0 0 1080 1080">
  <defs>
    <style>
      .cls-1 {
        fill: #001c54;
      }
    </style>
  </defs>
  <path class="cls-1" d="M680.03,526.83c13.36,3.78,27.45,7.24,39.93,9.23,23.9,3.81,81.3,8,83.73,8.17l3.06.22,2.21-30.55-3.05-.22c-.58-.04-58.57-4.27-81.12-7.87-5.6-.89-11.63-2.14-17.81-3.6,4.86-4.09,9.68-7.93,14.27-11.25,18.69-13.52,68.35-43.32,68.85-43.62l2.63-1.58-15.76-26.27-2.63,1.58c-2.09,1.25-51.42,30.88-71.04,45.06-10.24,7.41-21.25,16.85-31.47,26.25-7.76-2.43-14.8-4.78-20.39-6.7,3.11-9.92,7.79-24.2,13.26-38.62,8.33-2.8,16.46-5.82,23.74-8.99,22.2-9.66,72.81-37.04,74.95-38.2l2.69-1.46-14.59-26.94-2.69,1.46c-.47.25-42.46,22.95-65.88,33.99,12.81-22.9,37.29-61.78,37.57-62.22l1.63-2.59-25.91-16.33-1.63,2.59c-1.3,2.06-31.96,50.75-43.07,72.26-3.42,6.63-6.77,14.02-9.94,21.64-14.27,4.31-28.22,7.89-38,10.25-2.11-7.76-4.82-18.24-7.41-29.58,7.14-8.06,14.03-16.37,19.71-24.23,14.2-19.63,43.81-68.95,45.06-71.04l1.58-2.63-26.27-15.76-1.58,2.63c-.3.5-30.22,50.32-43.62,68.85-.68.94-1.39,1.9-2.11,2.86-.23-1.91-.44-3.79-.6-5.62-2.11-22.84-2.49-80.88-2.49-81.46l-.02-3.06-30.63.19.02,3.06c.02,2.44.4,59.97,2.62,84.09.95,10.33,2.83,21.81,5.06,33.1-8.52,9.06-16.78,17.28-22.89,23.23-5.49-5.34-12.71-12.51-20.29-20.48,2.8-12.26,5.24-24.91,6.55-36.21,2.78-24.11,4.47-81.57,4.54-84l.09-3.06-30.62-.89-.09,3.06c-.02.58-1.73,58.67-4.35,81.38-.4,3.46-.93,7.1-1.55,10.84-1.88-2.38-3.67-4.73-5.33-7.03-13.39-18.52-43.32-68.35-43.62-68.85l-1.58-2.63-26.27,15.76,1.58,2.63c1.25,2.09,30.86,51.41,45.06,71.04,6.26,8.66,13.99,17.87,21.91,26.69-2.54,9.84-5.11,18.84-7.14,25.7-6.81-1.81-15.65-4.26-25.2-7.16-3.41-12.16-7.33-24.49-11.6-35.07-9.07-22.46-35.07-73.78-36.18-75.95l-1.39-2.73-27.32,13.86,1.38,2.73c.26.52,26.57,52.46,35.09,73.56,1.43,3.55,2.83,7.35,4.18,11.31-3.89-1.55-7.62-3.13-11.09-4.74-20.9-9.67-71.22-38.41-71.73-38.7l-2.66-1.52-15.2,26.6,2.66,1.52c2.12,1.21,52.12,29.75,74.06,39.9,10.36,4.79,22.48,9.32,34.45,13.33,2.42,9.68,4.43,18.63,5.9,25.52-9.67,2.35-23.52,5.52-38.01,8.2-6.57-5.66-13.21-11.04-19.56-15.63-19.6-14.17-68.95-43.81-71.04-45.06l-2.63-1.58-15.76,26.27,2.63,1.58c.46.27,41.9,25.15,63.33,39.76-25.68,1-74.83,0-75.36,0l-3.06-.06-.63,30.63,3.06.06c.92.02,22.73.46,44.8.46,17.72,0,30.95-.28,39.32-.82,8.01-.52,16.72-1.58,25.51-2.92,11.01,10.11,21.23,20.34,28.26,27.57-4.12,4.24-9.34,9.51-15.17,15.18-13.36-3.78-27.45-7.24-39.93-9.23-23.91-3.81-81.3-8-83.73-8.17l-3.06-.22-2.21,30.55,3.05.22c.58.04,58.57,4.27,81.12,7.87,5.6.89,11.63,2.14,17.81,3.6-4.86,4.09-9.68,7.93-14.27,11.25-18.69,13.52-68.35,43.32-68.85,43.62l-2.63,1.58,15.76,26.27,2.63-1.58c2.09-1.25,51.42-30.88,71.04-45.06,10.24-7.41,21.25-16.85,31.47-26.25,7.76,2.43,14.8,4.78,20.39,6.71-2.78,8.86-6.81,21.2-11.54,34.01-8.94,2.96-17.69,6.18-25.46,9.56-22.18,9.66-72.81,37.04-74.95,38.2l-2.69,1.46,14.59,26.94,2.69-1.46c.49-.26,46.21-24.98,68.84-35.37-11.48,21.5-40.23,67.16-40.53,67.63l-1.63,2.59,25.91,16.33,1.63-2.59c1.3-2.06,31.96-50.75,43.07-72.26,4.11-7.96,8.1-17.01,11.82-26.24,13.61-4.06,26.77-7.43,36.12-9.69,2.31,8.49,5.34,20.23,8.13,32.8-7.4,8.32-14.57,16.92-20.44,25.05-14.2,19.63-43.81,68.95-45.06,71.04l-1.58,2.63,26.27,15.76,1.58-2.63c.3-.5,30.22-50.32,43.62-68.85.81-1.12,1.64-2.24,2.51-3.38.07.71.14,1.42.21,2.11,2.11,22.84,2.49,80.88,2.49,81.46l.02,3.06,30.63-.19-.02-3.06c-.02-2.44-.4-59.98-2.62-84.09-.86-9.31-2.47-19.56-4.41-29.76,8.29-8.78,16.28-16.74,22.24-22.54,5.31,5.17,12.24,12.05,19.55,19.71-2.49,11.23-4.62,22.65-5.81,32.95-2.78,24.1-4.47,81.57-4.54,84l-.09,3.06,30.62.89.09-3.06c.02-.58,1.73-58.67,4.35-81.38.28-2.42.62-4.92,1.01-7.49,2.08,2.62,4.05,5.19,5.86,7.7,13.4,18.52,43.32,68.35,43.62,68.85l1.58,2.63,26.27-15.76-1.58-2.63c-1.25-2.09-30.86-51.4-45.06-71.04-6.47-8.95-14.51-18.49-22.71-27.58,2.8-11.06,5.69-21.26,7.94-28.84,6.81,1.81,15.65,4.26,25.2,7.16,3.41,12.16,7.33,24.49,11.6,35.07,9.07,22.48,35.07,73.78,36.18,75.95l1.39,2.73,27.32-13.86-1.39-2.73c-.26-.52-26.62-52.57-35.09-73.56-1.43-3.55-2.83-7.35-4.18-11.31,3.89,1.55,7.62,3.13,11.09,4.74,20.9,9.67,71.22,38.41,71.73,38.7l2.66,1.52,15.2-26.6-2.66-1.52c-2.12-1.21-52.1-29.74-74.06-39.9-10.36-4.79-22.48-9.32-34.45-13.33-2.42-9.68-4.43-18.63-5.9-25.52,8.82-2.14,21.12-4.97,34.21-7.48,7.79,6.87,15.78,13.46,23.36,18.94,19.62,14.19,68.95,43.81,71.04,45.06l2.63,1.58,15.76-26.27-2.63-1.58c-.5-.3-49.93-29.96-68.72-43.53,23.36-1.42,80.18-.27,80.75-.26l3.06.06.63-30.62-3.06-.06c-2.44-.05-59.98-1.21-84.13.36-9.14.6-19.19,1.88-29.22,3.51-9.57-8.95-18.31-17.72-24.55-24.13,4.12-4.24,9.34-9.51,15.17-15.18ZM658.38,539.89l-2.05,2.13,2.05,2.13c5.89,6.1,14.2,14.51,23.44,23.29-7.61,1.35-15.08,2.85-21.99,4.33-12.84-12.64-22.13-22.67-22.9-23.51l-5.74-6.23,5.74-6.23c.64-.69,7.04-7.62,16.46-17.1,6.04,1.98,12.79,4.1,19.86,6.19-5.76,5.66-10.88,10.87-14.88,15.01ZM638.5,601.89l.61,2.89c1.39,6.65,3.31,15.36,5.64,24.91-7.11-2.28-14.04-4.36-20.37-6.17-3.4-14.82-5.43-25.67-5.62-26.67l-1.55-8.33,8.18-2.22c1.11-.3,14.61-3.94,32.51-7.86,5.05,4.92,10.57,10.17,16.3,15.38-12.73,2.55-24.47,5.3-32.84,7.36l-2.87.71ZM678.15,761.56c-5.49-10.88-26.66-53.13-34.58-72.74-3.74-9.27-7.21-19.93-10.3-30.62,7.11,2.25,14.43,4.7,21.45,7.3,1.88,5.8,3.85,11.36,5.9,16.44,7.5,18.59,28.48,60.49,33.93,71.3l-16.39,8.32ZM638.34,786.32c-6.27-10.38-30.62-50.48-42.32-66.66-2.85-3.94-6.05-8.03-9.47-12.16,1.36-7.41,3.04-15.1,4.84-22.58,7.08,7.98,13.91,16.21,19.52,23.97,12.38,17.12,36.9,57.53,43.19,67.98l-15.76,9.46ZM555.42,800.65c.38-12.18,1.98-59.4,4.4-80.42,1.02-8.85,2.75-18.56,4.82-28.26,5.22,5.59,10.48,11.46,15.37,17.27-.79,4.53-1.45,8.93-1.93,13.1-2.3,19.97-3.91,66.75-4.29,78.85l-18.37-.53ZM500.26,800.34c-.11-12.09-.64-58.85-2.49-78.92-.25-2.7-.57-5.49-.95-8.36,4.9-6.01,10.31-12.16,15.75-18.08,1.54,8.53,2.79,16.97,3.5,24.75,1.94,21.02,2.46,68.3,2.57,80.5l-18.38.11ZM425.9,776.87c6.3-10.44,30.81-50.85,43.19-67.98,4.97-6.87,10.88-14.1,17.08-21.2,1.65,7.91,3.13,15.97,4.22,23.58-2.27,2.85-4.42,5.66-6.4,8.39-11.71,16.19-36.06,56.28-42.32,66.66l-15.76-9.46ZM366.32,739.99c6.43-10.26,31.19-50,40.4-67.84.71-1.38,1.42-2.8,2.13-4.25,7.39-2.97,15.61-5.81,23.9-8.42-3.1,7.44-6.36,14.64-9.7,21.11-9.67,18.73-34.7,58.88-41.18,69.21l-15.55-9.8ZM433.39,593.52c-5.44-1.89-12.35-4.23-20.05-6.69,5.37-5.06,10.43-10,14.93-14.49,12.68,4.22,21.53,7.51,22.41,7.84l7.94,2.97-2.32,8.15c-.32,1.12-4.22,14.76-10.17,32.32-6.92,1.9-14.3,4.03-21.7,6.35,4.5-12.49,8.29-24.25,10.88-32.65l.87-2.83-2.79-.97ZM421.62,544.14l2.05-2.13-2.05-2.13c-6.65-6.89-16.37-16.71-27.06-26.69,7.62-1.3,15.16-2.76,22.21-4.24,14.57,14.16,25.45,25.91,26.29,26.82l5.74,6.23-5.74,6.23c-.64.69-7.04,7.62-16.46,17.1-6.04-1.98-12.79-4.1-19.86-6.19,5.76-5.66,10.88-10.87,14.88-15.01ZM322.05,512.06c-17.58,0-35.06-.28-41.61-.4l.38-18.38c12.1.22,58.91.94,78.96-.37.49-.03.98-.07,1.48-.1,6.38,4.78,13.12,10.43,19.73,16.31-6.91.97-13.69,1.72-20.02,2.13-8.24.54-21.34.81-38.92.81ZM362.35,486c-16.32-11.8-56.31-36.08-66.66-42.33l9.46-15.76c10.45,6.3,50.88,30.83,67.98,43.19,4.98,3.6,10.15,7.7,15.33,12.05-8.71,1.47-17.42,2.68-25.39,3.36-.24-.17-.47-.35-.71-.52ZM441.5,478.11l-.61-2.89c-1.39-6.65-3.31-15.36-5.64-24.91,7.11,2.28,14.04,4.36,20.37,6.17,3.4,14.82,5.43,25.67,5.62,26.67l1.55,8.33-8.18,2.22c-1.18.32-16.34,4.41-35.91,8.6-5.2-5.01-10.81-10.25-16.57-15.39,14.13-2.74,27.34-5.82,36.51-8.09l2.87-.71ZM401.85,318.44c5.49,10.89,26.66,53.14,34.58,72.74,3.74,9.27,7.21,19.92,10.3,30.62-7.11-2.25-14.43-4.7-21.45-7.3-1.88-5.8-3.85-11.36-5.9-16.44-7.48-18.54-28.47-60.48-33.93-71.3l16.39-8.32ZM441.66,297.71c6.27,10.38,30.62,50.47,42.32,66.66,2.67,3.7,5.66,7.53,8.85,11.41-1.44,7.45-3.18,15.1-4.99,22.47-6.81-7.71-13.34-15.62-18.75-23.11-12.38-17.12-36.9-57.53-43.19-67.98l15.76-9.46ZM524.58,279.35c-.38,12.18-1.98,59.4-4.4,80.42-1.14,9.84-3.15,20.75-5.53,31.53-5.2-5.59-10.42-11.44-15.25-17.21,1.05-5.69,1.92-11.24,2.52-16.42,2.3-19.97,3.91-66.75,4.29-78.85l18.37.53ZM579.74,279.66c.11,12.09.64,58.85,2.49,78.92.35,3.77.83,7.73,1.43,11.8-4.84,5.97-10.2,12.09-15.61,17.99-1.82-9.66-3.31-19.31-4.12-28.1-1.94-21.02-2.47-68.3-2.57-80.5l18.38-.11ZM654.1,307.16c-6.3,10.44-30.81,50.85-43.19,67.98-4.78,6.61-10.44,13.56-16.39,20.41-1.67-7.78-3.21-15.78-4.4-23.43,2.09-2.63,4.07-5.22,5.9-7.75,11.71-16.19,36.06-56.28,42.32-66.66l15.76,9.46ZM713.68,344.04c-6.33,10.1-30.44,48.8-39.97,67.02-7.46,3.12-15.9,6.1-24.48,8.84,2.5-5.78,5.09-11.35,7.72-16.45,9.67-18.73,34.7-58.88,41.18-69.21l15.55,9.8ZM678.65,415.61c18.39-8,59.7-30.09,70.37-35.83l8.75,16.16c-10.74,5.78-52.43,28.09-71.78,36.52-5.7,2.48-11.94,4.87-18.4,7.14,3.35-8.41,6.92-16.61,10.55-23.77.17-.07.34-.15.51-.22ZM646.61,490.51c5.44,1.89,12.35,4.23,20.05,6.69-5.37,5.06-10.43,10-14.93,14.49-12.68-4.22-21.53-7.51-22.41-7.84l-7.94-2.97,2.32-8.15c.34-1.21,4.89-17.11,11.69-36.77,7-1.93,14.42-4.1,21.84-6.45-5.22,14.15-9.63,27.79-12.54,37.21l-.87,2.83,2.79.97ZM568.36,651.78c-9.94-9.9-17.27-16.67-17.98-17.33l-10.38-9.57-10.38,9.57c-.76.7-8.98,8.3-19.87,19.22-4.06-16.07-7.56-27.79-7.87-28.83l-4.06-13.53-13.81,2.95c-1.09.23-13.88,2.99-30.78,7.44,5.27-15.83,8.66-27.69,8.96-28.73l3.86-13.58-13.23-4.95c-.82-.31-8.49-3.16-19.74-6.95,8.33-8.45,13.89-14.46,14.48-15.1l9.57-10.38-9.57-10.38c-.79-.86-10.38-11.22-23.61-24.21,17.8-3.91,31.14-7.51,32.25-7.81l13.63-3.7-2.58-13.88c-.17-.94-1.95-10.38-4.93-23.66,13.11,3.64,22.46,5.88,23.39,6.1l13.74,3.27,4.37-13.43c.29-.9,3.23-9.96,6.93-22.95,10.39,10.38,18.14,17.54,18.87,18.22l10.38,9.57,10.38-9.57c.78-.72,9.39-8.68,20.69-20.04,3.7,14.4,6.76,24.65,7.05,25.61l4.06,13.53,13.81-2.95c1.13-.24,14.64-3.15,32.27-7.83-6.12,18-10.13,32.02-10.45,33.16l-3.86,13.58,13.23,4.95c.82.31,8.49,3.16,19.74,6.95-8.33,8.45-13.89,14.46-14.48,15.1l-9.57,10.38,9.57,10.38c.72.78,8.79,9.51,20.27,20.92-16.11,3.61-27.88,6.79-28.92,7.07l-13.63,3.7,2.58,13.88c.17.94,1.95,10.39,4.93,23.66-13.11-3.64-22.46-5.88-23.39-6.1l-13.74-3.27-4.37,13.43c-.32.97-3.71,11.44-7.81,26.09ZM658.26,513.83c4.61-4.56,9.73-9.51,15.11-14.53,6.63,2.04,13.66,4.1,20.72,5.98-5.45,4.87-10.8,9.87-15.79,14.69-7.06-2.04-13.87-4.15-20.04-6.15ZM701.25,507.13c7.82,1.95,15.51,3.61,22.56,4.73,19.81,3.16,66.51,6.79,78.59,7.7l-1.33,18.33c-12.16-.91-59.29-4.56-80.15-7.89-11.17-1.78-23.68-4.77-35.78-8.11,5.13-4.89,10.6-9.94,16.11-14.77ZM678.61,494.49c9.29-8.44,19.1-16.75,28.27-23.38,17.1-12.37,57.53-36.89,67.98-43.19l9.46,15.76c-10.35,6.25-50.35,30.53-66.66,42.33-5.78,4.18-11.9,9.14-18,14.4-7.1-1.83-14.26-3.87-21.04-5.92ZM637.88,448.91c2.53-7.06,5.3-14.41,8.24-21.61,8.05-2.48,16.1-5.18,23.53-8.03-3.35,7.17-6.61,15.01-9.65,22.9-7.41,2.44-14.94,4.7-22.12,6.73ZM630.68,450.91c-19.36,5.26-34.76,8.57-35.96,8.83l-8.29,1.77-2.44-8.12c-.31-1.03-3.84-12.84-7.9-28.95,4.82-4.93,9.95-10.32,15.06-15.92,2.6,11.05,5.25,21.1,7.29,28.5l.79,2.85,2.88-.69c9.27-2.21,22.57-5.55,36.52-9.63-2.85,7.21-5.52,14.47-7.94,21.35ZM574.36,417.44c-1.65-6.81-3.32-14.15-4.84-21.62,5.25-5.64,10.53-11.53,15.43-17.37,1.3,7.56,2.87,15.31,4.54,22.79-5.06,5.64-10.22,11.13-15.12,16.2ZM569.32,422.6c-12.44,12.62-22.26,21.71-23.09,22.47l-6.23,5.74-6.23-5.74c-.78-.72-9.63-8.9-21.13-20.49,1.76-6.4,3.62-13.47,5.39-20.8,7.5,7.79,14.54,14.72,19.83,19.84l2.13,2.05,2.13-2.05c5.87-5.67,13.86-13.56,22.27-22.38,1.59,7.46,3.28,14.71,4.92,21.35ZM507.67,419.54c-4.78-4.9-9.85-10.25-14.88-15.78,1.81-7.14,3.56-14.61,5.09-21.98,4.88,5.68,10.04,11.35,15.12,16.74-1.72,7.33-3.56,14.47-5.33,21.03ZM505.79,426.37c-4.09,14.6-7.48,25.08-7.8,26.04l-2.62,8.06-8.24-1.96c-.99-.24-11.73-2.81-26.36-6.94-1.5-6.41-3.23-13.43-5.16-20.65,9.42,2.8,18.03,5.15,24.6,6.87l2.86.75.85-2.83c1.97-6.58,4.49-15.27,7.04-24.9,5.08,5.51,10.13,10.77,14.83,15.55ZM454.02,449.64c-6.46-1.89-13.43-4.02-20.51-6.34-1.79-7.03-3.78-14.33-5.93-21.45,7.01,2.5,14.2,4.85,21.13,6.99,1.97,7.19,3.75,14.26,5.31,20.8ZM426.57,440.97c-10.53-3.62-21-7.61-30.07-11.81-19.15-8.86-60.33-32.12-70.93-38.14l9.12-15.96c10.5,5.96,51.18,28.93,69.53,37.42,4.97,2.3,10.43,4.55,16.13,6.71,2.24,7.14,4.33,14.57,6.22,21.78ZM411.42,503.81c-7.26,1.47-14.92,2.9-22.57,4.12-6.16-5.59-12.5-11.08-18.66-15.97,7.83-.89,16.12-2.17,24.29-3.64,5.82,5.09,11.56,10.37,16.94,15.48ZM421.74,570.21c-4.61,4.56-9.73,9.51-15.11,14.53-6.63-2.04-13.66-4.1-20.72-5.98,5.45-4.87,10.8-9.87,15.79-14.69,7.06,2.04,13.87,4.15,20.04,6.15ZM378.75,576.9c-7.82-1.95-15.51-3.61-22.56-4.73-19.81-3.16-66.51-6.79-78.59-7.7l1.33-18.33c12.16.91,59.29,4.56,80.15,7.89,11.17,1.78,23.68,4.77,35.78,8.11-5.13,4.89-10.6,9.94-16.11,14.77ZM401.39,589.54c-9.29,8.44-19.1,16.75-28.27,23.38-17.1,12.37-57.53,36.89-67.98,43.19l-9.46-15.76c10.35-6.25,50.34-30.52,66.66-42.33,5.78-4.18,11.9-9.14,18-14.4,7.1,1.83,14.26,3.87,21.04,5.92ZM443.71,630.64c-2.43,6.92-5.11,14.23-7.98,21.49-7.86,2.39-15.78,5-23.16,7.75,3.21-7.23,6.31-14.97,9.18-22.64,7.39-2.4,14.86-4.62,21.96-6.6ZM404.35,663.11c-1.02.42-2.02.85-3,1.27-18.39,8-59.7,30.09-70.37,35.83l-8.75-16.16c10.74-5.78,52.45-28.1,71.78-36.52,6.24-2.71,13.12-5.32,20.23-7.77-3.11,8.07-6.46,16.1-9.89,23.35ZM450.87,628.68c18.63-5.01,33.25-8.16,34.42-8.41l8.29-1.77,2.44,8.12c.33,1.1,4.31,14.43,8.7,32.16-4.81,4.91-9.96,10.31-15.11,15.93-2.83-12.3-5.8-23.61-8.03-31.72l-.79-2.85-2.88.69c-8.87,2.11-21.45,5.27-34.74,9.12,2.8-7.27,5.39-14.5,7.72-21.25ZM506.41,665.79c1.64,6.9,3.27,14.27,4.74,21.7-5.27,5.64-10.58,11.55-15.53,17.42-1.22-7.53-2.74-15.33-4.39-22.91,5.1-5.66,10.28-11.15,15.18-16.21ZM511.47,660.63c12.06-12.2,21.49-20.93,22.3-21.67l6.23-5.74,6.23,5.74c.76.71,9.19,8.5,20.26,19.62-1.76,6.5-3.58,13.58-5.3,20.86-7.21-7.46-13.95-14.09-19.06-19.03l-2.13-2.05-2.13,2.05c-5.71,5.51-13.43,13.13-21.58,21.65-1.53-7.42-3.19-14.69-4.83-21.42ZM571.48,663.62c4.78,4.89,9.87,10.23,14.94,15.78-1.79,7.23-3.51,14.74-4.96,22.08-4.93-5.7-10.12-11.38-15.21-16.76,1.67-7.29,3.47-14.44,5.23-21.1ZM573.33,656.77c4.48-16.23,8.33-28.15,8.67-29.19l2.62-8.06,8.24,1.96c.99.24,11.73,2.81,26.36,6.94,1.5,6.41,3.23,13.43,5.16,20.65-9.42-2.8-18.03-5.15-24.6-6.87l-2.86-.75-.85,2.83c-2.19,7.29-5.04,17.17-7.86,28.04-5.12-5.52-10.19-10.79-14.88-15.55ZM625.98,630.36c6.46,1.89,13.43,4.02,20.52,6.34,1.79,7.03,3.78,14.33,5.93,21.45-7.01-2.5-14.2-4.85-21.13-6.99-1.97-7.19-3.75-14.26-5.31-20.8ZM653.43,639.03c10.53,3.62,21,7.61,30.07,11.81,19.17,8.87,60.33,32.12,70.93,38.14l-9.12,15.96c-10.5-5.96-51.18-28.93-69.53-37.42-4.97-2.3-10.43-4.55-16.13-6.71-2.24-7.14-4.33-14.57-6.22-21.78ZM665.12,576.9c7.1-1.48,14.68-2.94,22.31-4.22,5.89,5.45,12.02,10.89,18.06,15.88-7.76,1-15.85,2.33-23.75,3.8-5.78-5.16-11.41-10.44-16.62-15.46ZM712.19,593.94c1.84,1.43,3.67,2.8,5.46,4.09,16.32,11.8,56.31,36.07,66.66,42.33l-9.46,15.76c-10.45-6.3-50.87-30.82-67.98-43.19-6.24-4.52-12.79-9.81-19.26-15.4,8.31-1.47,16.72-2.75,24.58-3.59ZM720.22,587.09c-2.01.13-4.08.3-6.19.5-6.22-4.92-12.65-10.48-18.88-16.15,8.24-1.24,16.38-2.21,23.88-2.69,21.06-1.37,68.34-.63,80.54-.41l-.38,18.38c-12.1-.22-58.88-.94-78.96.37Z"/>
</svg>