<svg xmlns="http://www.w3.org/2000/svg" xmlns:xlink="http://www.w3.org/1999/xlink" width="1080" zoomAndPan="magnify" viewBox="0 0 810 809.999993" height="1080" preserveAspectRatio="xMidYMid meet" version="1.0"><path fill="#008ff9" d="M 591.445312 387.179688 C 609.257812 392.21875 628.042969 396.832031 644.683594 399.484375 C 676.550781 404.566406 753.085938 410.152344 756.324219 410.378906 L 760.40625 410.671875 L 763.351562 369.9375 L 759.285156 369.644531 C 758.511719 369.589844 681.191406 363.953125 651.125 359.152344 C 643.65625 357.964844 635.617188 356.296875 627.378906 354.351562 C 633.859375 348.898438 640.285156 343.777344 646.40625 339.351562 C 671.324219 321.324219 737.539062 281.589844 738.203125 281.191406 L 741.710938 279.085938 L 720.699219 244.058594 L 717.191406 246.164062 C 714.40625 247.832031 648.632812 287.339844 622.472656 306.246094 C 608.816406 316.125 594.136719 328.710938 580.511719 341.246094 C 570.164062 338.003906 560.777344 334.871094 553.324219 332.3125 C 557.472656 319.085938 563.710938 300.042969 571.003906 280.816406 C 582.113281 277.085938 592.953125 273.058594 602.65625 268.832031 C 632.257812 255.953125 699.738281 219.445312 702.589844 217.898438 L 706.179688 215.953125 L 686.726562 180.03125 L 683.136719 181.976562 C 682.511719 182.3125 626.523438 212.578125 595.296875 227.296875 C 612.378906 196.765625 645.019531 144.925781 645.390625 144.339844 L 647.566406 140.882812 L 613.019531 119.109375 L 610.84375 122.566406 C 609.113281 125.3125 568.230469 190.230469 553.417969 218.910156 C 548.859375 227.75 544.390625 237.605469 540.164062 247.765625 C 521.136719 253.511719 502.539062 258.285156 489.496094 261.429688 C 486.683594 251.085938 483.070312 237.109375 479.617188 221.992188 C 489.136719 211.246094 498.324219 200.164062 505.898438 189.683594 C 524.832031 163.511719 564.3125 97.75 565.976562 94.964844 L 568.085938 91.457031 L 533.058594 70.445312 L 530.953125 73.953125 C 530.550781 74.617188 490.65625 141.042969 472.792969 165.75 C 471.882812 167.003906 470.9375 168.285156 469.976562 169.566406 C 469.671875 167.019531 469.390625 164.511719 469.179688 162.070312 C 466.363281 131.617188 465.859375 54.230469 465.859375 53.457031 L 465.832031 49.378906 L 424.992188 49.632812 L 425.019531 53.710938 C 425.042969 56.964844 425.550781 133.671875 428.511719 165.832031 C 429.777344 179.605469 432.285156 194.910156 435.257812 209.964844 C 423.898438 222.042969 412.882812 233.003906 404.738281 240.9375 C 397.417969 233.816406 387.792969 224.257812 377.683594 213.632812 C 381.417969 197.285156 384.671875 180.417969 386.417969 165.351562 C 390.125 133.203125 392.378906 56.589844 392.472656 53.351562 L 392.589844 49.269531 L 351.765625 48.085938 L 351.644531 52.164062 C 351.617188 52.9375 349.339844 130.390625 345.84375 160.671875 C 345.3125 165.285156 344.605469 170.136719 343.777344 175.125 C 341.269531 171.953125 338.886719 168.816406 336.671875 165.75 C 318.816406 141.058594 278.910156 74.617188 278.511719 73.953125 L 276.40625 70.445312 L 241.378906 91.457031 L 243.484375 94.964844 C 245.152344 97.75 284.632812 163.511719 303.566406 189.683594 C 311.910156 201.230469 322.21875 213.511719 332.777344 225.269531 C 329.390625 238.390625 325.964844 250.390625 323.257812 259.539062 C 314.179688 257.125 302.390625 253.859375 289.65625 249.992188 C 285.113281 233.777344 279.886719 217.339844 274.191406 203.230469 C 262.097656 173.285156 227.429688 104.859375 225.953125 101.964844 L 224.097656 98.324219 L 187.671875 116.804688 L 189.511719 120.445312 C 189.859375 121.136719 224.9375 190.390625 236.296875 218.523438 C 238.203125 223.257812 240.070312 228.324219 241.871094 233.605469 C 236.683594 231.539062 231.710938 229.429688 227.085938 227.285156 C 199.21875 214.390625 132.125 176.070312 131.445312 175.683594 L 127.898438 173.65625 L 107.632812 209.125 L 111.179688 211.152344 C 114.003906 212.765625 180.671875 250.816406 209.925781 264.351562 C 223.738281 270.738281 239.898438 276.777344 255.859375 282.125 C 259.085938 295.03125 261.765625 306.964844 263.726562 316.152344 C 250.832031 319.285156 232.363281 323.511719 213.042969 327.085938 C 204.285156 319.539062 195.429688 312.363281 186.964844 306.246094 C 160.832031 287.351562 95.03125 247.832031 92.246094 246.164062 L 88.738281 244.058594 L 67.726562 279.085938 L 71.230469 281.191406 C 71.84375 281.550781 127.097656 314.722656 155.671875 334.203125 C 121.429688 335.539062 55.898438 334.203125 55.191406 334.203125 L 51.113281 334.125 L 50.269531 374.964844 L 54.351562 375.042969 C 55.578125 375.070312 84.65625 375.65625 114.085938 375.65625 C 137.710938 375.65625 155.351562 375.285156 166.511719 374.566406 C 177.191406 373.871094 188.804688 372.457031 200.523438 370.671875 C 215.203125 384.152344 228.832031 397.792969 238.203125 407.429688 C 232.710938 413.085938 225.75 420.109375 217.976562 427.671875 C 200.164062 422.632812 181.378906 418.019531 164.738281 415.363281 C 132.859375 410.285156 56.339844 404.699219 53.097656 404.472656 L 49.019531 404.179688 L 46.070312 444.910156 L 50.136719 445.203125 C 50.910156 445.257812 128.230469 450.898438 158.296875 455.699219 C 165.765625 456.882812 173.804688 458.550781 182.042969 460.496094 C 175.566406 465.953125 169.136719 471.070312 163.019531 475.496094 C 138.097656 493.523438 71.882812 533.257812 71.21875 533.65625 L 67.710938 535.765625 L 88.726562 570.792969 L 92.230469 568.683594 C 95.019531 567.019531 160.792969 527.511719 186.953125 508.605469 C 200.605469 498.726562 215.285156 486.136719 228.910156 473.605469 C 239.257812 476.84375 248.644531 479.976562 256.097656 482.550781 C 252.390625 494.363281 247.019531 510.816406 240.710938 527.898438 C 228.792969 531.84375 217.125 536.136719 206.765625 540.644531 C 177.191406 553.523438 109.683594 590.03125 106.832031 591.578125 L 103.246094 593.523438 L 122.699219 629.445312 L 126.285156 627.496094 C 126.9375 627.152344 187.898438 594.191406 218.070312 580.339844 C 202.765625 609.003906 164.429688 669.882812 164.03125 670.511719 L 161.859375 673.964844 L 196.40625 695.738281 L 198.578125 692.285156 C 200.3125 689.539062 241.191406 624.617188 256.003906 595.9375 C 261.484375 585.324219 266.804688 573.257812 271.765625 560.953125 C 289.910156 555.539062 307.457031 551.042969 319.925781 548.03125 C 323.003906 559.351562 327.042969 575.003906 330.765625 591.765625 C 320.898438 602.859375 311.339844 614.324219 303.511719 625.164062 C 284.578125 651.339844 245.097656 717.097656 243.429688 719.882812 L 241.324219 723.390625 L 276.351562 744.40625 L 278.457031 740.898438 C 278.859375 740.230469 318.75 673.804688 336.617188 649.097656 C 337.699219 647.605469 338.804688 646.113281 339.964844 644.589844 C 340.058594 645.539062 340.152344 646.484375 340.246094 647.40625 C 343.058594 677.859375 343.566406 755.246094 343.566406 756.019531 L 343.589844 760.097656 L 384.429688 759.84375 L 384.40625 755.765625 C 384.378906 752.511719 383.871094 675.792969 380.910156 643.644531 C 379.765625 631.230469 377.617188 617.566406 375.03125 603.964844 C 386.085938 592.257812 396.738281 581.644531 404.683594 573.910156 C 411.765625 580.804688 421.003906 589.976562 430.75 600.191406 C 427.429688 615.164062 424.589844 630.390625 423.003906 644.125 C 419.296875 676.257812 417.042969 752.882812 416.953125 756.125 L 416.832031 760.203125 L 457.65625 761.390625 L 457.777344 757.3125 C 457.804688 756.539062 460.085938 679.085938 463.578125 648.804688 C 463.953125 645.578125 464.40625 642.246094 464.925781 638.816406 C 467.699219 642.3125 470.324219 645.738281 472.738281 649.085938 C 490.605469 673.777344 530.496094 740.21875 530.898438 740.882812 L 533.003906 744.390625 L 568.03125 723.378906 L 565.925781 719.871094 C 564.257812 717.085938 524.777344 651.339844 505.84375 625.152344 C 497.21875 613.21875 486.496094 600.5 475.566406 588.378906 C 479.296875 573.632812 483.152344 560.03125 486.152344 549.925781 C 495.230469 552.339844 507.019531 555.605469 519.75 559.472656 C 524.296875 575.683594 529.523438 592.125 535.21875 606.230469 C 547.3125 636.203125 581.976562 704.605469 583.457031 707.496094 L 585.3125 711.136719 L 621.738281 692.65625 L 619.882812 689.019531 C 619.539062 688.324219 584.390625 618.925781 573.097656 590.9375 C 571.191406 586.203125 569.324219 581.136719 567.523438 575.859375 C 572.710938 577.925781 577.683594 580.03125 582.3125 582.179688 C 610.179688 595.070312 677.269531 633.390625 677.953125 633.777344 L 681.496094 635.804688 L 701.765625 600.339844 L 698.21875 598.3125 C 695.390625 596.699219 628.75 558.65625 599.472656 545.113281 C 585.65625 538.726562 569.496094 532.683594 553.539062 527.339844 C 550.3125 514.429688 547.632812 502.496094 545.671875 493.3125 C 557.429688 490.457031 573.832031 486.683594 591.285156 483.339844 C 601.671875 492.496094 612.324219 501.285156 622.429688 508.589844 C 648.589844 527.511719 714.363281 567.003906 717.152344 568.671875 L 720.65625 570.777344 L 741.671875 535.75 L 738.164062 533.644531 C 737.496094 533.246094 671.589844 493.699219 646.539062 475.605469 C 677.683594 473.710938 753.445312 475.246094 754.203125 475.257812 L 758.285156 475.339844 L 759.125 434.511719 L 755.042969 434.429688 C 751.792969 434.363281 675.070312 432.816406 642.871094 434.910156 C 630.683594 435.710938 617.285156 437.417969 603.910156 439.589844 C 591.152344 427.65625 579.496094 415.964844 571.179688 407.417969 C 576.671875 401.765625 583.632812 394.738281 591.40625 387.179688 Z M 562.578125 404.589844 L 559.84375 407.429688 L 562.578125 410.269531 C 570.429688 418.40625 581.511719 429.617188 593.832031 441.324219 C 583.683594 443.125 573.722656 445.125 564.511719 447.097656 C 547.390625 430.246094 535.003906 416.871094 533.976562 415.75 L 526.324219 407.445312 L 533.976562 399.136719 C 534.832031 398.21875 543.363281 388.976562 555.925781 376.339844 C 563.976562 378.976562 572.976562 381.804688 582.40625 384.589844 C 574.722656 392.136719 567.898438 399.085938 562.566406 404.605469 Z M 536.070312 487.257812 L 536.882812 491.109375 C 538.738281 499.976562 541.296875 511.589844 544.40625 524.324219 C 534.925781 521.285156 525.683594 518.511719 517.246094 516.097656 C 512.710938 496.339844 510.003906 481.871094 509.75 480.539062 L 507.683594 469.429688 L 518.589844 466.472656 C 520.070312 466.070312 538.070312 461.21875 561.9375 455.992188 C 568.671875 462.550781 576.03125 469.550781 583.671875 476.496094 C 566.699219 479.898438 551.042969 483.566406 539.882812 486.3125 L 536.058594 487.257812 Z M 588.9375 700.152344 C 581.617188 685.644531 553.390625 629.3125 542.832031 603.164062 C 537.84375 590.804688 533.21875 576.589844 529.097656 562.339844 C 538.578125 565.339844 548.339844 568.605469 557.699219 572.070312 C 560.203125 579.804688 562.832031 587.21875 565.566406 593.992188 C 575.566406 618.777344 603.539062 674.644531 610.804688 689.058594 L 588.953125 700.152344 Z M 535.859375 733.164062 C 527.496094 719.324219 495.03125 665.859375 479.429688 644.285156 C 475.632812 639.03125 471.363281 633.578125 466.804688 628.070312 C 468.617188 618.191406 470.859375 607.9375 473.257812 597.964844 C 482.699219 608.605469 491.804688 619.578125 499.285156 629.925781 C 515.792969 652.75 548.484375 706.632812 556.871094 720.566406 L 535.859375 733.179688 Z M 425.296875 752.269531 C 425.804688 736.03125 427.9375 673.070312 431.164062 645.042969 C 432.523438 633.246094 434.832031 620.296875 437.589844 607.363281 C 444.550781 614.816406 451.566406 622.644531 458.085938 630.390625 C 457.03125 636.429688 456.152344 642.296875 455.511719 647.859375 C 452.445312 674.484375 450.296875 736.859375 449.792969 752.992188 L 425.296875 752.285156 Z M 351.75 751.859375 C 351.605469 735.738281 350.898438 673.390625 348.429688 646.632812 C 348.097656 643.03125 347.671875 639.3125 347.164062 635.484375 C 353.699219 627.472656 360.910156 619.269531 368.164062 611.378906 C 370.21875 622.75 371.882812 634.003906 372.832031 644.378906 C 375.417969 672.40625 376.109375 735.445312 376.257812 751.710938 Z M 252.605469 720.566406 C 261.003906 706.644531 293.683594 652.765625 310.191406 629.925781 C 316.816406 620.765625 324.699219 611.125 332.964844 601.65625 C 335.164062 612.203125 337.136719 622.953125 338.589844 633.097656 C 335.566406 636.898438 332.699219 640.644531 330.058594 644.285156 C 314.445312 665.871094 281.976562 719.324219 273.632812 733.164062 L 252.617188 720.550781 Z M 173.164062 671.390625 C 181.738281 657.710938 214.75 604.722656 227.03125 580.9375 C 227.976562 579.097656 228.925781 577.203125 229.871094 575.269531 C 239.726562 571.3125 250.683594 567.523438 261.738281 564.042969 C 257.605469 573.964844 253.257812 583.566406 248.804688 592.191406 C 235.910156 617.164062 202.539062 670.699219 193.898438 684.472656 L 173.164062 671.40625 Z M 262.589844 476.097656 C 255.339844 473.578125 246.125 470.457031 235.859375 467.179688 C 243.019531 460.429688 249.765625 453.84375 255.765625 447.859375 C 272.671875 453.484375 284.472656 457.871094 285.644531 458.3125 L 296.230469 462.269531 L 293.136719 473.136719 C 292.710938 474.632812 287.511719 492.816406 279.578125 516.230469 C 270.351562 518.765625 260.511719 521.605469 250.644531 524.699219 C 256.644531 508.042969 261.699219 492.363281 265.152344 481.164062 L 266.3125 477.390625 Z M 246.898438 410.257812 L 249.632812 407.417969 L 246.898438 404.578125 C 238.03125 395.390625 225.070312 382.296875 210.816406 368.992188 C 220.976562 367.257812 231.03125 365.3125 240.429688 363.339844 C 259.859375 382.21875 274.363281 397.882812 275.484375 399.097656 L 283.136719 407.40625 L 275.484375 415.710938 C 274.632812 416.632812 266.097656 425.871094 253.539062 438.511719 C 245.484375 435.871094 236.484375 433.042969 227.058594 430.257812 C 234.738281 422.710938 241.566406 415.765625 246.898438 410.246094 Z M 114.136719 367.484375 C 90.699219 367.484375 67.390625 367.109375 58.65625 366.953125 L 59.164062 342.445312 C 75.296875 342.738281 137.710938 343.699219 164.445312 341.953125 C 165.097656 341.910156 165.75 341.859375 166.417969 341.816406 C 174.925781 348.191406 183.910156 355.722656 192.726562 363.566406 C 183.511719 364.859375 174.472656 365.859375 166.03125 366.40625 C 155.042969 367.125 137.578125 367.484375 114.136719 367.484375 Z M 167.871094 332.738281 C 146.109375 317.003906 92.792969 284.632812 78.992188 276.296875 L 91.605469 255.285156 C 105.539062 263.683594 159.445312 296.390625 182.246094 312.871094 C 188.882812 317.671875 195.777344 323.136719 202.683594 328.9375 C 191.070312 330.898438 179.457031 332.511719 168.832031 333.417969 C 168.511719 333.191406 168.203125 332.953125 167.882812 332.722656 Z M 273.40625 322.21875 L 272.589844 318.363281 C 270.738281 309.496094 268.179688 297.882812 265.070312 285.152344 C 274.550781 288.191406 283.792969 290.964844 292.230469 293.378906 C 296.765625 313.136719 299.472656 327.605469 299.722656 328.9375 L 301.792969 340.042969 L 290.882812 343.003906 C 289.3125 343.429688 269.097656 348.882812 243.003906 354.472656 C 236.070312 347.792969 228.589844 340.804688 220.910156 333.953125 C 239.75 330.296875 257.363281 326.191406 269.589844 323.164062 L 273.417969 322.21875 Z M 220.539062 109.324219 C 227.859375 123.84375 256.085938 180.179688 266.644531 206.3125 C 271.632812 218.671875 276.257812 232.871094 280.378906 247.136719 C 270.898438 244.136719 261.136719 240.871094 251.777344 237.40625 C 249.269531 229.671875 246.644531 222.257812 243.910156 215.484375 C 233.9375 190.765625 205.953125 134.84375 198.671875 120.417969 L 220.523438 109.324219 Z M 273.617188 81.683594 C 281.976562 95.523438 314.445312 148.976562 330.042969 170.566406 C 333.605469 175.496094 337.589844 180.605469 341.84375 185.777344 C 339.925781 195.710938 337.605469 205.910156 335.191406 215.738281 C 326.109375 205.457031 317.40625 194.910156 310.191406 184.925781 C 293.683594 162.097656 260.992188 108.21875 252.605469 94.285156 L 273.617188 81.671875 Z M 384.179688 57.203125 C 383.671875 73.445312 381.539062 136.40625 378.3125 164.429688 C 376.792969 177.550781 374.109375 192.097656 370.9375 206.472656 C 364.003906 199.019531 357.042969 191.21875 350.605469 183.523438 C 352.003906 175.9375 353.164062 168.539062 353.964844 161.632812 C 357.03125 135.003906 359.179688 72.632812 359.683594 56.496094 Z M 457.722656 57.617188 C 457.871094 73.738281 458.578125 136.085938 461.042969 162.84375 C 461.511719 167.871094 462.152344 173.152344 462.953125 178.578125 C 456.496094 186.539062 449.351562 194.699219 442.136719 202.566406 C 439.710938 189.683594 437.722656 176.816406 436.644531 165.097656 C 434.058594 137.070312 433.351562 74.03125 433.21875 57.765625 Z M 556.871094 94.285156 C 548.472656 108.203125 515.792969 162.085938 499.285156 184.925781 C 492.910156 193.738281 485.363281 203.003906 477.429688 212.136719 C 475.203125 201.765625 473.152344 191.097656 471.566406 180.898438 C 474.351562 177.390625 476.992188 173.9375 479.429688 170.566406 C 495.042969 148.976562 527.511719 95.523438 535.859375 81.683594 L 556.871094 94.296875 Z M 636.3125 143.457031 C 627.871094 156.925781 595.722656 208.523438 583.019531 232.816406 C 573.070312 236.976562 561.816406 240.953125 550.378906 244.605469 C 553.710938 236.898438 557.164062 229.472656 560.671875 222.671875 C 573.566406 197.699219 606.9375 144.164062 615.578125 130.390625 Z M 589.605469 238.882812 C 614.125 228.21875 669.203125 198.765625 683.429688 191.109375 L 695.097656 212.65625 C 680.777344 220.363281 625.191406 250.109375 599.390625 261.351562 C 591.792969 264.65625 583.472656 267.84375 574.859375 270.871094 C 579.324219 259.65625 584.085938 248.722656 588.925781 239.179688 C 589.152344 239.085938 589.378906 238.976562 589.605469 238.882812 Z M 546.882812 338.75 C 554.136719 341.269531 563.351562 344.390625 573.617188 347.671875 C 566.457031 354.417969 559.710938 361.003906 553.710938 366.992188 C 536.804688 361.363281 525.003906 356.976562 523.832031 356.539062 L 513.246094 352.578125 L 516.339844 341.710938 C 516.792969 340.097656 522.859375 318.898438 531.925781 292.683594 C 541.257812 290.109375 551.152344 287.21875 561.042969 284.085938 C 554.085938 302.953125 548.203125 321.136719 544.324219 333.699219 L 543.164062 337.472656 L 546.882812 338.765625 Z M 442.550781 553.777344 C 429.296875 540.578125 419.523438 531.550781 418.578125 530.671875 L 404.738281 517.910156 L 390.898438 530.671875 C 389.882812 531.605469 378.925781 541.738281 364.40625 556.296875 C 358.992188 534.871094 354.324219 519.246094 353.910156 517.859375 L 348.496094 499.816406 L 330.085938 503.75 C 328.632812 504.058594 311.578125 507.738281 289.042969 513.671875 C 296.070312 492.566406 300.589844 476.75 300.992188 475.363281 L 306.136719 457.257812 L 288.496094 450.65625 C 287.40625 450.246094 277.179688 446.445312 262.179688 441.390625 C 273.285156 430.125 280.699219 422.109375 281.484375 421.257812 L 294.246094 407.417969 L 281.484375 393.578125 C 280.429688 392.429688 267.644531 378.617188 250.003906 361.296875 C 273.738281 356.085938 291.523438 351.285156 293.003906 350.882812 L 311.179688 345.953125 L 307.738281 327.445312 C 307.511719 326.191406 305.136719 313.605469 301.164062 295.898438 C 318.644531 300.75 331.109375 303.738281 332.351562 304.03125 L 350.671875 308.390625 L 356.496094 290.484375 C 356.882812 289.285156 360.804688 277.203125 365.738281 259.882812 C 379.589844 273.722656 389.925781 283.269531 390.898438 284.179688 L 404.738281 296.9375 L 418.578125 284.179688 C 419.617188 283.21875 431.097656 272.605469 446.164062 257.457031 C 451.097656 276.65625 455.179688 290.324219 455.566406 291.605469 L 460.976562 309.644531 L 479.390625 305.710938 C 480.898438 305.390625 498.910156 301.511719 522.417969 295.269531 C 514.257812 319.269531 508.910156 337.964844 508.484375 339.484375 L 503.339844 357.589844 L 520.976562 364.191406 C 522.070312 364.605469 532.296875 368.40625 547.296875 373.457031 C 536.191406 384.722656 528.777344 392.738281 527.992188 393.589844 L 515.230469 407.429688 L 527.992188 421.269531 C 528.953125 422.3125 539.710938 433.949219 555.019531 449.164062 C 533.539062 453.976562 517.84375 458.21875 516.457031 458.589844 L 498.285156 463.523438 L 501.726562 482.03125 C 501.953125 483.285156 504.324219 495.882812 508.296875 513.578125 C 490.816406 508.722656 478.351562 505.738281 477.109375 505.445312 L 458.792969 501.085938 L 452.964844 518.992188 C 452.539062 520.285156 448.019531 534.246094 442.550781 553.777344 Z M 562.417969 369.84375 C 568.566406 363.765625 575.390625 357.164062 582.566406 350.472656 C 591.40625 353.191406 600.777344 355.9375 610.191406 358.445312 C 602.925781 364.9375 595.792969 371.605469 589.136719 378.03125 C 579.722656 375.3125 570.644531 372.496094 562.417969 369.832031 Z M 619.738281 360.910156 C 630.164062 363.511719 640.417969 365.722656 649.816406 367.21875 C 676.230469 371.429688 738.496094 376.269531 754.605469 377.484375 L 752.832031 401.925781 C 736.617188 400.710938 673.777344 395.84375 645.964844 391.40625 C 631.070312 389.03125 614.390625 385.042969 598.257812 380.589844 C 605.097656 374.070312 612.390625 367.339844 619.738281 360.898438 Z M 589.550781 344.058594 C 601.9375 332.804688 615.019531 321.722656 627.246094 312.882812 C 650.042969 296.390625 703.953125 263.699219 717.882812 255.296875 L 730.496094 276.3125 C 716.699219 284.644531 663.363281 317.019531 641.617188 332.75 C 633.910156 338.324219 625.75 344.9375 617.617188 351.953125 C 608.152344 349.511719 598.605469 346.792969 589.566406 344.058594 Z M 535.246094 283.285156 C 538.617188 273.871094 542.3125 264.070312 546.230469 254.472656 C 556.964844 251.164062 567.699219 247.566406 577.605469 243.765625 C 573.136719 253.324219 568.792969 263.777344 564.738281 274.296875 C 554.859375 277.550781 544.816406 280.566406 535.246094 283.269531 Z M 525.644531 285.953125 C 499.832031 292.964844 479.296875 297.378906 477.699219 297.722656 L 466.644531 300.085938 L 463.390625 289.257812 C 462.976562 287.882812 458.269531 272.136719 452.859375 250.65625 C 459.285156 244.085938 466.125 236.898438 472.9375 229.429688 C 476.40625 244.164062 479.9375 257.566406 482.65625 267.429688 L 483.710938 271.230469 L 487.550781 270.3125 C 499.910156 267.363281 517.644531 262.910156 536.246094 257.472656 C 532.445312 267.085938 528.882812 276.765625 525.65625 285.9375 Z M 450.550781 241.324219 C 448.351562 232.246094 446.125 222.457031 444.097656 212.496094 C 451.097656 204.976562 458.136719 197.125 464.671875 189.339844 C 466.40625 199.417969 468.496094 209.75 470.722656 219.726562 C 463.976562 227.246094 457.097656 234.566406 450.566406 241.324219 Z M 443.832031 248.203125 C 427.246094 265.03125 414.152344 277.152344 413.042969 278.164062 L 404.738281 285.816406 L 396.429688 278.164062 C 395.390625 277.203125 383.589844 266.296875 368.257812 250.84375 C 370.605469 242.3125 373.085938 232.882812 375.445312 223.109375 C 385.445312 233.496094 394.832031 242.738281 401.882812 249.566406 L 404.726562 252.296875 L 407.566406 249.566406 C 415.390625 242.003906 426.042969 231.484375 437.257812 219.726562 C 439.378906 229.671875 441.632812 239.339844 443.816406 248.191406 Z M 361.632812 244.125 C 355.257812 237.589844 348.496094 230.457031 341.792969 223.085938 C 344.203125 213.566406 346.539062 203.605469 348.578125 193.777344 C 355.085938 201.351562 361.964844 208.910156 368.738281 216.097656 C 366.445312 225.871094 363.992188 235.390625 361.632812 244.136719 Z M 359.125 253.230469 C 353.671875 272.699219 349.152344 286.671875 348.726562 287.953125 L 345.230469 298.699219 L 334.246094 296.085938 C 332.925781 295.765625 318.605469 292.339844 299.097656 286.832031 C 297.097656 278.285156 294.792969 268.925781 292.21875 259.296875 C 304.777344 263.03125 316.257812 266.164062 325.019531 268.457031 L 328.832031 269.457031 L 329.964844 265.683594 C 332.589844 256.910156 335.953125 245.324219 339.351562 232.484375 C 346.125 239.832031 352.859375 246.84375 359.125 253.21875 Z M 290.097656 284.257812 C 281.484375 281.738281 272.191406 278.898438 262.75 275.804688 C 260.363281 266.429688 257.710938 256.699219 254.84375 247.203125 C 264.191406 250.539062 273.777344 253.671875 283.019531 256.523438 C 285.644531 266.109375 288.019531 275.539062 290.097656 284.257812 Z M 253.496094 272.699219 C 239.457031 267.871094 225.496094 262.550781 213.40625 256.953125 C 187.871094 245.136719 132.964844 214.125 118.832031 206.097656 L 130.992188 184.816406 C 144.992188 192.765625 199.230469 223.390625 223.699219 234.710938 C 230.324219 237.777344 237.605469 240.777344 245.203125 243.65625 C 248.191406 253.179688 250.976562 263.085938 253.496094 272.699219 Z M 233.296875 356.484375 C 223.617188 358.445312 213.40625 360.351562 203.203125 361.976562 C 194.992188 354.523438 186.539062 347.203125 178.324219 340.683594 C 188.765625 339.496094 199.816406 337.792969 210.710938 335.832031 C 218.472656 342.617188 226.125 349.65625 233.296875 356.472656 Z M 247.058594 445.019531 C 240.910156 451.097656 234.085938 457.699219 226.910156 464.390625 C 218.070312 461.671875 208.699219 458.925781 199.285156 456.417969 C 206.550781 449.925781 213.683594 443.257812 220.339844 436.832031 C 229.75 439.550781 238.832031 442.363281 247.058594 445.03125 Z M 189.738281 453.9375 C 179.3125 451.339844 169.058594 449.125 159.65625 447.632812 C 133.246094 443.417969 70.976562 438.578125 54.871094 437.363281 L 56.644531 412.925781 C 72.859375 414.136719 135.699219 419.003906 163.511719 423.445312 C 178.40625 425.816406 195.085938 429.804688 211.21875 434.257812 C 204.378906 440.777344 197.085938 447.511719 189.738281 453.953125 Z M 219.925781 470.792969 C 207.539062 482.042969 194.457031 493.125 182.230469 501.964844 C 159.429688 518.457031 105.523438 551.152344 91.589844 559.550781 L 78.976562 538.539062 C 92.777344 530.203125 146.097656 497.84375 167.859375 482.097656 C 175.566406 476.523438 183.726562 469.910156 191.859375 462.898438 C 201.324219 465.335938 210.871094 468.058594 219.910156 470.792969 Z M 276.351562 525.589844 C 273.109375 534.816406 269.539062 544.566406 265.710938 554.246094 C 255.230469 557.429688 244.671875 560.910156 234.832031 564.578125 C 239.109375 554.9375 243.246094 544.617188 247.070312 534.390625 C 256.925781 531.191406 266.882812 528.230469 276.351562 525.589844 Z M 223.871094 568.882812 C 222.511719 569.445312 221.179688 570.019531 219.871094 570.578125 C 195.351562 581.246094 140.269531 610.699219 126.042969 618.351562 L 114.378906 596.804688 C 128.699219 589.097656 184.3125 559.339844 210.085938 548.109375 C 218.40625 544.496094 227.578125 541.019531 237.058594 537.75 C 232.910156 548.511719 228.445312 559.21875 223.871094 568.882812 Z M 285.898438 522.976562 C 310.738281 516.296875 330.230469 512.097656 331.792969 511.765625 L 342.84375 509.40625 L 346.097656 520.230469 C 346.539062 521.699219 351.84375 539.472656 357.699219 563.109375 C 351.285156 569.65625 344.417969 576.859375 337.550781 584.351562 C 333.777344 567.953125 329.816406 552.871094 326.84375 542.058594 L 325.792969 538.257812 L 321.953125 539.179688 C 310.125 541.992188 293.351562 546.203125 275.632812 551.339844 C 279.363281 541.644531 282.816406 532.003906 285.925781 523.003906 Z M 359.953125 572.457031 C 362.136719 581.65625 364.3125 591.484375 366.269531 601.390625 C 359.246094 608.910156 352.164062 616.792969 345.566406 624.617188 C 343.9375 614.578125 341.910156 604.179688 339.710938 594.070312 C 346.511719 586.523438 353.417969 579.203125 359.953125 572.457031 Z M 366.699219 565.578125 C 382.777344 549.3125 395.351562 537.671875 396.429688 536.683594 L 404.738281 529.03125 L 413.042969 536.683594 C 414.058594 537.632812 425.296875 548.019531 440.058594 562.84375 C 437.710938 571.511719 435.285156 580.953125 432.992188 590.65625 C 423.378906 580.710938 414.390625 571.871094 407.578125 565.285156 L 404.738281 562.550781 L 401.898438 565.285156 C 394.285156 572.632812 383.992188 582.792969 373.125 594.152344 C 371.085938 584.257812 368.871094 574.566406 366.683594 565.589844 Z M 446.710938 569.566406 C 453.085938 576.085938 459.871094 583.203125 466.632812 590.605469 C 464.246094 600.246094 461.953125 610.257812 460.019531 620.042969 C 453.445312 612.445312 446.523438 604.871094 439.738281 597.699219 C 441.964844 587.976562 444.363281 578.445312 446.710938 569.566406 Z M 449.179688 560.429688 C 455.152344 538.792969 460.285156 522.898438 460.738281 521.511719 L 464.230469 510.765625 L 475.21875 513.378906 C 476.539062 513.699219 490.859375 517.125 510.363281 522.632812 C 512.363281 531.179688 514.671875 540.539062 517.246094 550.164062 C 504.683594 546.429688 493.203125 543.296875 484.445312 541.003906 L 480.632812 540.003906 L 479.496094 543.777344 C 476.578125 553.496094 472.777344 566.671875 469.019531 581.164062 C 462.191406 573.804688 455.429688 566.777344 449.179688 560.429688 Z M 519.378906 525.21875 C 527.992188 527.738281 537.285156 530.578125 546.738281 533.671875 C 549.125 543.042969 551.777344 552.777344 554.644531 562.269531 C 545.296875 558.9375 535.710938 555.804688 526.472656 552.953125 C 523.84375 543.363281 521.472656 533.9375 519.390625 525.21875 Z M 555.976562 536.777344 C 570.019531 541.605469 583.976562 546.925781 596.070312 552.523438 C 621.632812 564.351562 676.511719 595.351562 690.644531 603.378906 L 678.484375 624.65625 C 664.484375 616.710938 610.246094 586.085938 585.777344 574.765625 C 579.152344 571.699219 571.871094 568.699219 564.269531 565.816406 C 561.285156 556.296875 558.496094 546.390625 555.976562 536.777344 Z M 571.566406 453.9375 C 581.03125 451.964844 591.136719 450.019531 601.3125 448.3125 C 609.164062 455.578125 617.339844 462.832031 625.390625 469.484375 C 615.042969 470.816406 604.257812 472.589844 593.722656 474.550781 C 586.019531 467.671875 578.511719 460.632812 571.566406 453.9375 Z M 634.324219 476.65625 C 636.777344 478.566406 639.21875 480.390625 641.605469 482.109375 C 663.363281 497.84375 716.683594 530.203125 730.484375 538.550781 L 717.871094 559.566406 C 703.9375 551.164062 650.042969 518.472656 627.230469 501.976562 C 618.910156 495.953125 610.179688 488.898438 601.550781 481.445312 C 612.632812 479.484375 623.84375 477.777344 634.324219 476.65625 Z M 645.03125 467.523438 C 642.351562 467.699219 639.589844 467.925781 636.777344 468.191406 C 628.484375 461.632812 619.910156 454.21875 611.605469 446.65625 C 622.589844 445.003906 633.445312 443.710938 643.445312 443.070312 C 671.523438 441.246094 734.566406 442.230469 750.832031 442.523438 L 750.324219 467.03125 C 734.191406 466.738281 671.816406 465.777344 645.042969 467.523438 Z M 645.03125 467.523438 " fill-opacity="1" fill-rule="nonzero"/></svg>