<svg xmlns="http://www.w3.org/2000/svg" xmlns:xlink="http://www.w3.org/1999/xlink" width="1080" zoomAndPan="magnify" viewBox="0 0 810 809.999993" height="1080" preserveAspectRatio="xMidYMid meet" version="1.0"><path fill="#ffffff" d="M 590.222656 387.339844 C 607.917969 392.347656 626.574219 396.929688 643.101562 399.5625 C 674.753906 404.609375 750.769531 410.15625 753.988281 410.382812 L 758.039062 410.675781 L 760.964844 370.214844 L 756.925781 369.925781 C 756.160156 369.871094 679.363281 364.269531 649.5 359.503906 C 642.082031 358.324219 634.097656 356.667969 625.914062 354.734375 C 632.347656 349.320312 638.734375 344.234375 644.8125 339.835938 C 669.5625 321.933594 735.328125 282.46875 735.988281 282.070312 L 739.472656 279.976562 L 718.601562 245.1875 L 715.117188 247.28125 C 712.351562 248.9375 647.023438 288.175781 621.039062 306.953125 C 607.480469 316.769531 592.898438 329.269531 579.363281 341.71875 C 569.085938 338.5 559.765625 335.386719 552.363281 332.84375 C 556.480469 319.707031 562.679688 300.796875 569.921875 281.699219 C 580.953125 277.992188 591.71875 273.992188 601.359375 269.792969 C 630.761719 257 697.785156 220.742188 700.617188 219.207031 L 704.179688 217.273438 L 684.859375 181.59375 L 681.296875 183.527344 C 680.671875 183.859375 625.066406 213.921875 594.050781 228.542969 C 611.015625 198.214844 643.433594 146.726562 643.804688 146.144531 L 645.964844 142.714844 L 611.652344 121.089844 L 609.492188 124.519531 C 607.769531 127.246094 567.167969 191.726562 552.453125 220.210938 C 547.925781 228.992188 543.488281 238.777344 539.289062 248.871094 C 520.394531 254.578125 501.917969 259.320312 488.96875 262.445312 C 486.171875 252.167969 482.582031 238.289062 479.152344 223.273438 C 488.609375 212.597656 497.734375 201.59375 505.257812 191.183594 C 524.0625 165.1875 563.273438 99.871094 564.929688 97.105469 L 567.023438 93.621094 L 532.230469 72.75 L 530.140625 76.234375 C 529.742188 76.894531 490.121094 142.871094 472.375 167.414062 C 471.472656 168.65625 470.53125 169.929688 469.578125 171.199219 C 469.273438 168.671875 468.996094 166.179688 468.785156 163.757812 C 465.992188 133.511719 465.488281 56.648438 465.488281 55.878906 L 465.460938 51.828125 L 424.898438 52.078125 L 424.921875 56.132812 C 424.949219 59.363281 425.453125 135.550781 428.394531 167.492188 C 429.652344 181.171875 432.140625 196.375 435.09375 211.328125 C 423.8125 223.324219 412.871094 234.210938 404.78125 242.089844 C 397.511719 235.019531 387.949219 225.523438 377.910156 214.96875 C 381.617188 198.730469 384.851562 181.980469 386.585938 167.015625 C 390.265625 135.085938 392.503906 58.992188 392.597656 55.773438 L 392.714844 51.722656 L 352.167969 50.542969 L 352.046875 54.59375 C 352.019531 55.363281 349.757812 132.292969 346.285156 162.367188 C 345.757812 166.949219 345.054688 171.769531 344.234375 176.722656 C 341.746094 173.570312 339.375 170.457031 337.175781 167.414062 C 319.441406 142.886719 279.804688 76.894531 279.410156 76.234375 L 277.316406 72.75 L 242.527344 93.621094 L 244.621094 97.105469 C 246.273438 99.871094 285.488281 165.1875 304.292969 191.183594 C 312.582031 202.652344 322.820312 214.847656 333.308594 226.53125 C 329.945312 239.5625 326.542969 251.480469 323.851562 260.5625 C 314.835938 258.167969 303.128906 254.921875 290.480469 251.082031 C 285.964844 234.976562 280.773438 218.648438 275.117188 204.636719 C 263.105469 174.894531 228.675781 106.929688 227.203125 104.058594 L 225.363281 100.441406 L 189.183594 118.796875 L 191.011719 122.414062 C 191.355469 123.101562 226.199219 191.886719 237.480469 219.828125 C 239.375 224.53125 241.230469 229.5625 243.015625 234.804688 C 237.867188 232.753906 232.925781 230.660156 228.332031 228.527344 C 200.652344 215.722656 134.011719 177.664062 133.339844 177.277344 L 129.816406 175.265625 L 109.6875 210.492188 L 113.207031 212.503906 C 116.015625 214.109375 182.230469 251.902344 211.285156 265.34375 C 225.007812 271.6875 241.058594 277.6875 256.910156 282.996094 C 260.113281 295.816406 262.777344 307.667969 264.722656 316.792969 C 251.917969 319.90625 233.574219 324.105469 214.386719 327.652344 C 205.683594 320.15625 196.890625 313.03125 188.480469 306.953125 C 162.527344 288.1875 97.171875 248.9375 94.402344 247.28125 L 90.921875 245.1875 L 70.050781 279.976562 L 73.53125 282.070312 C 74.140625 282.429688 129.019531 315.378906 157.402344 334.726562 C 123.390625 336.050781 58.304688 334.726562 57.601562 334.726562 L 53.546875 334.644531 L 52.714844 375.210938 L 56.765625 375.289062 C 57.984375 375.316406 86.867188 375.898438 116.09375 375.898438 C 139.5625 375.898438 157.082031 375.527344 168.167969 374.8125 C 178.773438 374.125 190.308594 372.71875 201.949219 370.945312 C 216.53125 384.332031 230.066406 397.882812 239.375 407.457031 C 233.917969 413.070312 227.007812 420.050781 219.285156 427.558594 C 201.59375 422.554688 182.933594 417.972656 166.40625 415.335938 C 134.742188 410.289062 58.738281 404.742188 55.523438 404.515625 L 51.46875 404.226562 L 48.542969 444.683594 L 52.582031 444.972656 C 53.351562 445.027344 130.148438 450.628906 160.007812 455.394531 C 167.425781 456.574219 175.410156 458.230469 183.59375 460.164062 C 177.160156 465.578125 170.777344 470.664062 164.699219 475.0625 C 139.945312 492.964844 74.179688 532.429688 73.519531 532.828125 L 70.035156 534.921875 L 90.90625 569.710938 L 94.390625 567.617188 C 97.15625 565.960938 162.484375 526.722656 188.46875 507.945312 C 202.03125 498.132812 216.609375 485.628906 230.144531 473.179688 C 240.421875 476.398438 249.746094 479.511719 257.148438 482.066406 C 253.464844 493.800781 248.128906 510.144531 241.863281 527.105469 C 230.027344 531.027344 218.4375 535.292969 208.148438 539.765625 C 178.773438 552.558594 111.726562 588.820312 108.890625 590.355469 L 105.328125 592.289062 L 124.652344 627.964844 L 128.214844 626.03125 C 128.863281 625.6875 189.410156 592.953125 219.378906 579.191406 C 204.175781 607.664062 166.101562 668.132812 165.703125 668.753906 L 163.546875 672.183594 L 197.859375 693.8125 L 200.015625 690.378906 C 201.738281 687.652344 242.339844 623.171875 257.054688 594.6875 C 262.496094 584.144531 267.78125 572.160156 272.707031 559.9375 C 290.730469 554.558594 308.160156 550.097656 320.542969 547.105469 C 323.601562 558.347656 327.613281 573.894531 331.308594 590.542969 C 321.507812 601.558594 312.011719 612.949219 304.238281 623.714844 C 285.433594 649.710938 246.222656 715.027344 244.566406 717.792969 L 242.472656 721.277344 L 277.261719 742.148438 L 279.355469 738.664062 C 279.753906 738.003906 319.375 672.027344 337.121094 647.488281 C 338.195312 646.003906 339.292969 644.519531 340.445312 643.011719 C 340.539062 643.949219 340.632812 644.890625 340.722656 645.804688 C 343.519531 676.050781 344.023438 752.914062 344.023438 753.683594 L 344.046875 757.734375 L 384.613281 757.484375 L 384.585938 753.429688 C 384.558594 750.199219 384.054688 674 381.117188 642.070312 C 379.976562 629.742188 377.84375 616.167969 375.277344 602.660156 C 386.253906 591.03125 396.835938 580.488281 404.726562 572.808594 C 411.761719 579.65625 420.9375 588.765625 430.617188 598.910156 C 427.320312 613.78125 424.5 628.90625 422.925781 642.546875 C 419.242188 674.460938 417.003906 750.570312 416.910156 753.789062 L 416.792969 757.839844 L 457.34375 759.019531 L 457.460938 754.96875 C 457.488281 754.199219 459.753906 677.269531 463.222656 647.195312 C 463.59375 643.992188 464.042969 640.679688 464.558594 637.277344 C 467.316406 640.746094 469.921875 644.148438 472.320312 647.472656 C 490.066406 672 529.6875 737.988281 530.085938 738.652344 L 532.179688 742.132812 L 566.96875 721.261719 L 564.875 717.78125 C 563.222656 715.011719 524.007812 649.710938 505.203125 623.703125 C 496.636719 611.847656 485.988281 599.214844 475.128906 587.175781 C 478.835938 572.53125 482.664062 559.023438 485.644531 548.984375 C 494.660156 551.382812 506.367188 554.625 519.015625 558.464844 C 523.53125 574.570312 528.722656 590.898438 534.378906 604.910156 C 546.390625 634.679688 580.820312 702.617188 582.289062 705.492188 L 584.132812 709.105469 L 620.3125 690.75 L 618.472656 687.136719 C 618.125 686.449219 583.21875 617.515625 572 589.71875 C 570.105469 585.019531 568.253906 579.988281 566.464844 574.742188 C 571.617188 576.796875 576.554688 578.886719 581.152344 581.019531 C 608.828125 593.824219 675.46875 631.886719 676.144531 632.269531 L 679.667969 634.285156 L 699.796875 599.058594 L 696.273438 597.042969 C 693.464844 595.441406 627.277344 557.660156 598.195312 544.203125 C 584.476562 537.859375 568.425781 531.863281 552.574219 526.550781 C 549.367188 513.730469 546.707031 501.878906 544.761719 492.753906 C 556.441406 489.921875 572.730469 486.171875 590.0625 482.847656 C 600.378906 491.945312 610.960938 500.675781 621 507.929688 C 646.984375 526.722656 712.3125 565.949219 715.078125 567.605469 L 718.5625 569.695312 L 739.433594 534.90625 L 735.949219 532.816406 C 735.289062 532.417969 669.828125 493.136719 644.945312 475.167969 C 675.878906 473.289062 751.125 474.808594 751.882812 474.824219 L 755.933594 474.902344 L 756.769531 434.351562 L 752.714844 434.273438 C 749.484375 434.207031 673.285156 432.671875 641.300781 434.75 C 629.199219 435.542969 615.886719 437.238281 602.605469 439.398438 C 589.933594 427.546875 578.359375 415.929688 570.09375 407.441406 C 575.550781 401.828125 582.464844 394.847656 590.183594 387.339844 Z M 561.550781 404.636719 L 558.835938 407.457031 L 561.550781 410.277344 C 569.351562 418.355469 580.355469 429.492188 592.59375 441.121094 C 582.515625 442.90625 572.625 444.894531 563.472656 446.855469 C 546.46875 430.113281 534.164062 416.832031 533.144531 415.71875 L 525.542969 407.46875 L 533.144531 399.21875 C 533.992188 398.304688 542.46875 389.128906 554.945312 376.574219 C 562.941406 379.195312 571.882812 382.003906 581.246094 384.769531 C 573.617188 392.265625 566.835938 399.164062 561.539062 404.648438 Z M 535.226562 486.742188 L 536.03125 490.570312 C 537.875 499.375 540.417969 510.910156 543.5 523.558594 C 534.085938 520.539062 524.910156 517.785156 516.527344 515.386719 C 512.023438 495.761719 509.335938 481.390625 509.082031 480.066406 L 507.03125 469.035156 L 517.863281 466.097656 C 519.332031 465.699219 537.210938 460.878906 560.917969 455.6875 C 567.605469 462.203125 574.914062 469.15625 582.503906 476.054688 C 565.644531 479.433594 550.097656 483.074219 539.011719 485.800781 L 535.210938 486.742188 Z M 587.734375 698.195312 C 580.464844 683.785156 552.429688 627.832031 541.9375 601.863281 C 536.988281 589.585938 532.390625 575.46875 528.300781 561.3125 C 537.714844 564.292969 547.410156 567.539062 556.707031 570.980469 C 559.195312 578.664062 561.804688 586.023438 564.519531 592.753906 C 574.449219 617.371094 602.234375 672.859375 609.453125 687.175781 L 587.746094 698.195312 Z M 535.011719 730.984375 C 526.710938 717.238281 494.464844 664.132812 478.96875 642.707031 C 475.195312 637.488281 470.957031 632.070312 466.425781 626.601562 C 468.226562 616.789062 470.453125 606.605469 472.835938 596.699219 C 482.214844 607.265625 491.257812 618.167969 498.6875 628.441406 C 515.082031 651.113281 547.554688 704.628906 555.882812 718.46875 L 535.011719 730.996094 Z M 425.203125 749.960938 C 425.703125 733.832031 427.824219 671.296875 431.027344 643.460938 C 432.378906 631.742188 434.671875 618.882812 437.410156 606.035156 C 444.324219 613.4375 451.289062 621.210938 457.765625 628.90625 C 456.71875 634.90625 455.847656 640.734375 455.210938 646.253906 C 452.164062 672.699219 450.03125 734.652344 449.527344 750.675781 L 425.203125 749.972656 Z M 352.152344 749.550781 C 352.007812 733.539062 351.304688 671.617188 348.855469 645.035156 C 348.523438 641.460938 348.101562 637.765625 347.597656 633.964844 C 354.085938 626.007812 361.25 617.863281 368.457031 610.023438 C 370.496094 621.316406 372.148438 632.496094 373.089844 642.796875 C 375.660156 670.636719 376.347656 733.25 376.492188 749.40625 Z M 253.675781 718.46875 C 262.019531 704.644531 294.480469 651.128906 310.875 628.441406 C 317.457031 619.34375 325.28125 609.769531 333.492188 600.367188 C 335.679688 610.84375 337.636719 621.515625 339.082031 631.59375 C 336.074219 635.367188 333.230469 639.089844 330.605469 642.707031 C 315.097656 664.144531 282.851562 717.238281 274.5625 730.984375 L 253.691406 718.457031 Z M 174.777344 669.628906 C 183.289062 656.042969 216.082031 603.414062 228.277344 579.789062 C 229.21875 577.960938 230.15625 576.078125 231.097656 574.160156 C 240.886719 570.226562 251.769531 566.464844 262.75 563.007812 C 258.644531 572.863281 254.328125 582.398438 249.902344 590.964844 C 237.097656 615.769531 203.949219 668.941406 195.367188 682.621094 L 174.777344 669.640625 Z M 263.597656 475.65625 C 256.390625 473.15625 247.242188 470.054688 237.042969 466.796875 C 244.15625 460.097656 250.855469 453.554688 256.816406 447.609375 C 273.609375 453.199219 285.328125 457.554688 286.492188 457.992188 L 297.007812 461.925781 L 293.9375 472.71875 C 293.511719 474.199219 288.347656 492.265625 280.46875 515.519531 C 271.304688 518.035156 261.53125 520.855469 251.730469 523.929688 C 257.691406 507.386719 262.710938 491.8125 266.140625 480.691406 L 267.292969 476.941406 Z M 248.007812 410.261719 L 250.722656 407.441406 L 248.007812 404.621094 C 239.203125 395.496094 226.332031 382.492188 212.175781 369.277344 C 222.265625 367.554688 232.25 365.621094 241.585938 363.660156 C 260.882812 382.414062 275.289062 397.972656 276.402344 399.179688 L 284.003906 407.429688 L 276.402344 415.679688 C 275.554688 416.59375 267.078125 425.769531 254.605469 438.324219 C 246.605469 435.703125 237.667969 432.894531 228.304688 430.128906 C 235.933594 422.632812 242.710938 415.734375 248.007812 410.25 Z M 116.148438 367.78125 C 92.867188 367.78125 69.71875 367.410156 61.042969 367.25 L 61.546875 342.910156 C 77.570312 343.199219 139.5625 344.152344 166.113281 342.417969 C 166.761719 342.378906 167.414062 342.328125 168.074219 342.285156 C 176.523438 348.617188 185.449219 356.097656 194.203125 363.886719 C 185.050781 365.171875 176.074219 366.164062 167.691406 366.707031 C 156.777344 367.421875 139.429688 367.78125 116.148438 367.78125 Z M 169.519531 333.269531 C 147.90625 317.640625 94.945312 285.488281 81.238281 277.210938 L 93.769531 256.339844 C 107.605469 264.683594 161.148438 297.167969 183.792969 313.535156 C 190.390625 318.304688 197.234375 323.734375 204.09375 329.492188 C 192.5625 331.441406 181.027344 333.042969 170.472656 333.945312 C 170.152344 333.71875 169.847656 333.480469 169.53125 333.253906 Z M 274.335938 322.820312 L 273.527344 318.992188 C 271.6875 310.1875 269.144531 298.652344 266.058594 286.003906 C 275.476562 289.023438 284.652344 291.777344 293.035156 294.175781 C 297.539062 313.800781 300.226562 328.167969 300.480469 329.492188 L 302.53125 340.527344 L 291.699219 343.464844 C 290.136719 343.890625 270.058594 349.304688 244.144531 354.855469 C 237.257812 348.21875 229.828125 341.28125 222.199219 334.472656 C 240.910156 330.84375 258.40625 326.765625 270.550781 323.761719 L 274.351562 322.820312 Z M 221.828125 111.367188 C 229.097656 125.789062 257.132812 181.742188 267.621094 207.699219 C 272.574219 219.972656 277.171875 234.078125 281.261719 248.246094 C 271.847656 245.269531 262.152344 242.023438 252.855469 238.582031 C 250.367188 230.898438 247.757812 223.535156 245.042969 216.808594 C 235.136719 192.257812 207.339844 136.714844 200.109375 122.386719 L 221.816406 111.367188 Z M 274.546875 83.914062 C 282.851562 97.660156 315.097656 150.753906 330.59375 172.191406 C 334.128906 177.09375 338.089844 182.164062 342.3125 187.304688 C 340.40625 197.167969 338.101562 207.300781 335.707031 217.0625 C 326.6875 206.851562 318.039062 196.375 310.875 186.457031 C 294.480469 163.785156 262.007812 110.269531 253.675781 96.429688 L 274.546875 83.902344 Z M 384.359375 59.601562 C 383.855469 75.730469 381.738281 138.265625 378.53125 166.101562 C 377.023438 179.132812 374.363281 193.582031 371.210938 207.855469 C 364.324219 200.453125 357.410156 192.707031 351.015625 185.066406 C 352.40625 177.53125 353.558594 170.179688 354.351562 163.320312 C 357.398438 136.875 359.53125 74.921875 360.03125 58.898438 Z M 457.410156 60.011719 C 457.554688 76.023438 458.257812 137.945312 460.707031 164.527344 C 461.167969 169.519531 461.804688 174.761719 462.601562 180.152344 C 456.191406 188.058594 449.09375 196.164062 441.925781 203.976562 C 439.515625 191.183594 437.542969 178.402344 436.472656 166.761719 C 433.902344 138.925781 433.199219 76.3125 433.066406 60.15625 Z M 555.882812 96.429688 C 547.542969 110.253906 515.082031 163.769531 498.6875 186.457031 C 492.355469 195.210938 484.863281 204.414062 476.980469 213.484375 C 474.769531 203.183594 472.730469 192.585938 471.15625 182.457031 C 473.921875 178.972656 476.546875 175.542969 478.96875 172.191406 C 494.476562 150.753906 526.722656 97.660156 535.011719 83.914062 L 555.882812 96.441406 Z M 634.785156 145.269531 C 626.402344 158.644531 594.472656 209.894531 581.855469 234.023438 C 571.972656 238.15625 560.796875 242.101562 549.433594 245.730469 C 552.746094 238.078125 556.175781 230.699219 559.660156 223.945312 C 572.464844 199.144531 605.613281 145.972656 614.191406 132.292969 Z M 588.394531 240.050781 C 612.75 229.457031 667.457031 200.203125 681.585938 192.601562 L 693.175781 214 C 678.953125 221.65625 623.742188 251.199219 598.117188 262.363281 C 590.566406 265.648438 582.304688 268.8125 573.75 271.820312 C 578.183594 260.683594 582.914062 249.824219 587.71875 240.34375 C 587.945312 240.25 588.171875 240.144531 588.394531 240.050781 Z M 545.964844 339.242188 C 553.167969 341.742188 562.320312 344.84375 572.515625 348.101562 C 565.40625 354.800781 558.703125 361.34375 552.746094 367.289062 C 535.953125 361.703125 524.234375 357.34375 523.066406 356.90625 L 512.554688 352.972656 L 515.625 342.179688 C 516.074219 340.578125 522.101562 319.523438 531.105469 293.484375 C 540.375 290.929688 550.203125 288.058594 560.027344 284.945312 C 553.117188 303.683594 547.277344 321.746094 543.421875 334.222656 L 542.269531 337.96875 L 545.964844 339.253906 Z M 442.339844 552.8125 C 429.175781 539.699219 419.46875 530.734375 418.527344 529.863281 L 404.78125 517.1875 L 391.035156 529.863281 C 390.027344 530.789062 379.140625 540.851562 364.71875 555.316406 C 359.34375 534.03125 354.707031 518.511719 354.296875 517.136719 L 348.921875 499.21875 L 330.632812 503.125 C 329.191406 503.429688 312.25 507.082031 289.871094 512.976562 C 296.851562 492.011719 301.339844 476.304688 301.738281 474.929688 L 306.847656 456.945312 L 289.328125 450.390625 C 288.242188 449.980469 278.085938 446.207031 263.1875 441.1875 C 274.21875 429.996094 281.582031 422.035156 282.363281 421.1875 L 295.035156 407.441406 L 282.363281 393.695312 C 281.316406 392.558594 268.617188 378.835938 251.09375 361.636719 C 274.667969 356.457031 292.335938 351.6875 293.804688 351.292969 L 311.855469 346.390625 L 308.4375 328.011719 C 308.210938 326.765625 305.855469 314.265625 301.910156 296.679688 C 319.269531 301.5 331.652344 304.464844 332.882812 304.757812 L 351.082031 309.085938 L 356.867188 291.300781 C 357.25 290.109375 361.144531 278.109375 366.046875 260.910156 C 379.804688 274.65625 390.066406 284.136719 391.035156 285.039062 L 404.78125 297.710938 L 418.527344 285.039062 C 419.558594 284.082031 430.960938 273.542969 445.925781 258.496094 C 450.828125 277.566406 454.878906 291.140625 455.261719 292.414062 L 460.640625 310.332031 L 478.929688 306.425781 C 480.425781 306.105469 498.316406 302.253906 521.664062 296.054688 C 513.558594 319.894531 508.25 338.460938 507.824219 339.96875 L 502.714844 357.953125 L 520.234375 364.507812 C 521.320312 364.917969 531.476562 368.695312 546.375 373.710938 C 535.34375 384.902344 527.980469 392.863281 527.199219 393.710938 L 514.527344 407.457031 L 527.199219 421.203125 C 528.152344 422.234375 538.839844 433.796875 554.042969 448.90625 C 532.707031 453.6875 517.121094 457.898438 515.746094 458.269531 L 497.695312 463.167969 L 501.109375 481.550781 C 501.335938 482.796875 503.691406 495.308594 507.640625 512.882812 C 490.277344 508.0625 477.894531 505.097656 476.664062 504.804688 L 458.46875 500.476562 L 452.679688 518.261719 C 452.257812 519.546875 447.769531 533.410156 442.339844 552.8125 Z M 561.394531 370.125 C 567.5 364.085938 574.277344 357.53125 581.402344 350.882812 C 590.183594 353.582031 599.492188 356.3125 608.84375 358.800781 C 601.625 365.25 594.539062 371.871094 587.933594 378.253906 C 578.582031 375.554688 569.5625 372.757812 561.394531 370.109375 Z M 618.324219 361.25 C 628.679688 363.832031 638.863281 366.03125 648.203125 367.515625 C 674.4375 371.699219 736.28125 376.507812 752.277344 377.710938 L 750.515625 401.988281 C 734.414062 400.78125 672 395.949219 644.375 391.539062 C 629.582031 389.179688 613.015625 385.222656 596.992188 380.796875 C 603.785156 374.320312 611.027344 367.632812 618.324219 361.238281 Z M 588.34375 344.511719 C 600.644531 333.335938 613.636719 322.328125 625.78125 313.550781 C 648.425781 297.167969 701.96875 264.695312 715.808594 256.351562 L 728.335938 277.222656 C 714.628906 285.5 661.65625 317.65625 640.058594 333.28125 C 632.402344 338.816406 624.296875 345.386719 616.21875 352.351562 C 606.816406 349.929688 597.335938 347.226562 588.355469 344.511719 Z M 534.402344 284.148438 C 537.753906 274.800781 541.421875 265.066406 545.316406 255.53125 C 555.976562 252.246094 566.636719 248.671875 576.476562 244.898438 C 572.039062 254.394531 567.722656 264.773438 563.699219 275.222656 C 553.882812 278.457031 543.914062 281.449219 534.402344 284.136719 Z M 524.867188 286.796875 C 499.230469 293.765625 478.835938 298.148438 477.246094 298.492188 L 466.269531 300.835938 L 463.035156 290.082031 C 462.625 288.71875 457.953125 273.078125 452.574219 251.742188 C 458.957031 245.214844 465.75 238.078125 472.519531 230.660156 C 475.960938 245.292969 479.472656 258.605469 482.171875 268.402344 L 483.21875 272.179688 L 487.035156 271.265625 C 499.308594 268.335938 516.921875 263.914062 535.398438 258.511719 C 531.621094 268.058594 528.085938 277.675781 524.882812 286.785156 Z M 450.285156 242.472656 C 448.097656 233.457031 445.886719 223.734375 443.875 213.84375 C 450.828125 206.375 457.820312 198.574219 464.308594 190.839844 C 466.03125 200.851562 468.109375 211.113281 470.320312 221.019531 C 463.621094 228.488281 456.785156 235.761719 450.296875 242.472656 Z M 443.609375 249.308594 C 427.136719 266.019531 414.128906 278.058594 413.03125 279.066406 L 404.78125 286.667969 L 396.53125 279.066406 C 395.496094 278.109375 383.777344 267.277344 368.546875 251.929688 C 370.878906 243.453125 373.34375 234.089844 375.6875 224.382812 C 385.617188 234.699219 394.941406 243.878906 401.945312 250.660156 L 404.769531 253.375 L 407.589844 250.660156 C 415.363281 243.148438 425.941406 232.699219 437.082031 221.019531 C 439.1875 230.898438 441.425781 240.5 443.597656 249.292969 Z M 361.964844 245.253906 C 355.636719 238.765625 348.921875 231.679688 342.261719 224.359375 C 344.65625 214.902344 346.976562 205.007812 349 195.25 C 355.464844 202.769531 362.296875 210.28125 369.023438 217.417969 C 366.746094 227.125 364.308594 236.582031 361.964844 245.269531 Z M 359.476562 254.300781 C 354.058594 273.636719 349.570312 287.511719 349.148438 288.785156 L 345.675781 299.457031 L 334.765625 296.863281 C 333.453125 296.546875 319.230469 293.140625 299.855469 287.671875 C 297.871094 279.183594 295.578125 269.886719 293.023438 260.324219 C 305.496094 264.035156 316.898438 267.144531 325.601562 269.421875 L 329.386719 270.417969 L 330.515625 266.667969 C 333.121094 257.957031 336.460938 246.445312 339.835938 233.695312 C 346.5625 240.992188 353.253906 247.957031 359.476562 254.285156 Z M 290.917969 285.117188 C 282.363281 282.613281 273.132812 279.792969 263.753906 276.71875 C 261.386719 267.410156 258.75 257.742188 255.902344 248.3125 C 265.1875 251.625 274.707031 254.738281 283.886719 257.570312 C 286.492188 267.09375 288.851562 276.457031 290.917969 285.117188 Z M 254.566406 273.636719 C 240.621094 268.839844 226.753906 263.558594 214.742188 257.996094 C 189.382812 246.261719 134.847656 215.457031 120.808594 207.484375 L 132.886719 186.351562 C 146.792969 194.242188 200.664062 224.664062 224.964844 235.90625 C 231.546875 238.953125 238.777344 241.929688 246.328125 244.792969 C 249.292969 254.246094 252.0625 264.085938 254.566406 273.636719 Z M 234.5 356.855469 C 224.886719 358.800781 214.742188 360.695312 204.613281 362.308594 C 196.453125 354.90625 188.058594 347.636719 179.902344 341.160156 C 190.269531 339.984375 201.25 338.289062 212.066406 336.339844 C 219.777344 343.082031 227.375 350.074219 234.5 356.839844 Z M 248.167969 444.789062 C 242.0625 450.828125 235.28125 457.382812 228.160156 464.03125 C 219.378906 461.328125 210.066406 458.601562 200.71875 456.109375 C 207.9375 449.660156 215.019531 443.039062 221.628906 436.65625 C 230.980469 439.359375 239.996094 442.152344 248.167969 444.800781 Z M 191.238281 453.648438 C 180.878906 451.066406 170.695312 448.867188 161.359375 447.382812 C 135.125 443.199219 73.28125 438.390625 57.28125 437.1875 L 59.042969 412.914062 C 75.148438 414.117188 137.5625 418.949219 165.1875 423.359375 C 179.980469 425.71875 196.546875 429.679688 212.570312 434.101562 C 205.777344 440.578125 198.535156 447.265625 191.238281 453.660156 Z M 221.21875 470.386719 C 208.917969 481.5625 195.925781 492.570312 183.78125 501.347656 C 161.136719 517.730469 107.59375 550.203125 93.753906 558.546875 L 81.226562 537.675781 C 94.933594 529.398438 147.890625 497.257812 169.503906 481.617188 C 177.160156 476.082031 185.265625 469.511719 193.34375 462.546875 C 202.746094 464.96875 212.226562 467.671875 221.207031 470.386719 Z M 277.261719 524.816406 C 274.046875 533.980469 270.496094 543.660156 266.695312 553.273438 C 256.285156 556.441406 245.796875 559.898438 236.023438 563.539062 C 240.277344 553.964844 244.382812 543.714844 248.183594 533.554688 C 257.96875 530.378906 267.859375 527.4375 277.261719 524.816406 Z M 225.140625 567.816406 C 223.789062 568.371094 222.464844 568.941406 221.164062 569.496094 C 196.8125 580.09375 142.105469 609.347656 127.972656 616.949219 L 116.386719 595.546875 C 130.609375 587.894531 185.847656 558.335938 211.445312 547.183594 C 219.710938 543.59375 228.820312 540.136719 238.234375 536.894531 C 234.117188 547.582031 229.679688 558.214844 225.140625 567.816406 Z M 286.746094 522.21875 C 311.417969 515.585938 330.777344 511.414062 332.328125 511.082031 L 343.304688 508.738281 L 346.539062 519.492188 C 346.976562 520.949219 352.246094 538.601562 358.058594 562.082031 C 351.691406 568.585938 344.871094 575.734375 338.050781 583.179688 C 334.300781 566.890625 330.367188 551.910156 327.414062 541.171875 L 326.367188 537.398438 L 322.554688 538.3125 C 310.808594 541.105469 294.148438 545.289062 276.546875 550.386719 C 280.257812 540.761719 283.6875 531.1875 286.773438 522.246094 Z M 360.296875 571.367188 C 362.46875 580.503906 364.628906 590.261719 366.574219 600.101562 C 359.59375 607.570312 352.5625 615.398438 346.007812 623.171875 C 344.390625 613.199219 342.378906 602.871094 340.195312 592.832031 C 346.949219 585.335938 353.808594 578.066406 360.296875 571.367188 Z M 367 564.53125 C 382.96875 548.375 395.457031 536.8125 396.53125 535.835938 L 404.78125 528.234375 L 413.03125 535.835938 C 414.039062 536.773438 425.203125 547.089844 439.863281 561.816406 C 437.53125 570.425781 435.121094 579.800781 432.84375 589.441406 C 423.292969 579.5625 414.367188 570.78125 407.601562 564.242188 L 404.78125 561.527344 L 401.960938 564.242188 C 394.398438 571.539062 384.175781 581.628906 373.382812 592.910156 C 371.355469 583.085938 369.15625 573.457031 366.984375 564.546875 Z M 446.46875 568.492188 C 452.800781 574.96875 459.539062 582.039062 466.253906 589.390625 C 463.882812 598.964844 461.605469 608.910156 459.6875 618.628906 C 453.15625 611.082031 446.285156 603.558594 439.542969 596.433594 C 441.753906 586.78125 444.140625 577.3125 446.46875 568.492188 Z M 448.921875 559.421875 C 454.851562 537.925781 459.953125 522.140625 460.402344 520.761719 L 463.871094 510.089844 L 474.785156 512.683594 C 476.09375 513.003906 490.316406 516.40625 509.691406 521.875 C 511.679688 530.363281 513.96875 539.660156 516.527344 549.222656 C 504.050781 545.515625 492.648438 542.402344 483.949219 540.125 L 480.160156 539.132812 L 479.035156 542.878906 C 476.132812 552.535156 472.359375 565.617188 468.625 580.011719 C 461.84375 572.703125 455.132812 565.722656 448.921875 559.421875 Z M 518.644531 524.445312 C 527.199219 526.949219 536.429688 529.769531 545.820312 532.839844 C 548.191406 542.152344 550.824219 551.820312 553.671875 561.246094 C 544.390625 557.9375 534.867188 554.824219 525.691406 551.992188 C 523.082031 542.46875 520.722656 533.105469 518.65625 524.445312 Z M 554.996094 535.925781 C 568.941406 540.722656 582.808594 546.003906 594.820312 551.566406 C 620.207031 563.3125 674.714844 594.105469 688.75 602.074219 L 676.675781 623.210938 C 662.769531 615.320312 608.894531 584.898438 584.59375 573.65625 C 578.011719 570.609375 570.78125 567.632812 563.234375 564.769531 C 560.269531 555.316406 557.5 545.476562 554.996094 535.925781 Z M 570.476562 453.648438 C 579.878906 451.6875 589.917969 449.753906 600.023438 448.058594 C 607.824219 455.277344 615.941406 462.480469 623.941406 469.089844 C 613.664062 470.414062 602.949219 472.175781 592.488281 474.121094 C 584.832031 467.289062 577.378906 460.296875 570.476562 453.648438 Z M 632.8125 476.214844 C 635.25 478.109375 637.671875 479.921875 640.042969 481.628906 C 661.65625 497.257812 714.617188 529.398438 728.320312 537.6875 L 715.792969 558.558594 C 701.957031 550.214844 648.425781 517.746094 625.769531 501.363281 C 617.503906 495.375 608.828125 488.371094 600.261719 480.96875 C 611.265625 479.023438 622.402344 477.328125 632.8125 476.214844 Z M 643.445312 467.140625 C 640.785156 467.316406 638.042969 467.539062 635.25 467.804688 C 627.011719 461.289062 618.496094 453.925781 610.246094 446.417969 C 621.160156 444.773438 631.9375 443.492188 641.871094 442.855469 C 669.761719 441.039062 732.375 442.019531 748.53125 442.3125 L 748.027344 466.652344 C 732.003906 466.359375 670.050781 465.40625 643.460938 467.140625 Z M 643.445312 467.140625 " fill-opacity="1" fill-rule="nonzero"/></svg>